<svg width="100" height="100" viewBox="0 0 100 100" xmlns="http://www.w3.org/2000/svg">
  <defs>
    <linearGradient id="grad" x1="0%" y1="0%" x2="100%" y2="100%">
      <stop offset="0" style="stop-color:#228be6"/>
      <stop offset="1" style="stop-color:#15aabf"/>
    </linearGradient>
  </defs>
  
  <!-- Fondo -->
  <rect width="100" height="100" rx="20" fill="url(#grad)"/>
  
  <!-- Símbolos de traducción -->
  <g transform="translate(15,15) scale(1.5)" fill="none">
    <path d="M42 42L39.7143 37M26 42L28.2857 37M28.2857 37L34 24L39.7143 37M28.2857 37H39.7143" 
          stroke="white" 
          stroke-width="4" 
          stroke-linecap="round" 
          stroke-linejoin="round"
          fill="none"/>
    <path d="M16 6L17 9" 
          stroke="white" 
          stroke-width="4" 
          stroke-linecap="round" 
          stroke-linejoin="round"
          fill="none"/>
    <path d="M6 11H28" 
          stroke="white" 
          stroke-width="4" 
          stroke-linecap="round" 
          stroke-linejoin="round"
          fill="none"/>
    <path d="M10 16C10 16 11.7895 22.2609 16.2632 25.7391C20.7368 29.2174 28 32 28 32" 
          stroke="white" 
          stroke-width="4" 
          stroke-linecap="round" 
          stroke-linejoin="round"
          fill="none"/>
    <path d="M24 11C24 11 22.2105 19.2174 17.7368 23.7826C13.2632 28.3478 6 32 6 32" 
          stroke="white" 
          stroke-width="4" 
          stroke-linecap="round" 
          stroke-linejoin="round"
          fill="none"/>
  </g>
</svg>
